{"title":"The Tribe (Plemya) 2014 DVDrip RU.mp4","uid":11963632,"size":1313490051,"categoryP":"video","categoryS":"movies","magnet":"?xt=urn:btih:6b2458e5477a932bf435ab8002bb796d47695141&amp;dn=The+Tribe+%28Plemya%29+2014+DVDrip+RU.mp4&amp;tr=udp%3A%2F%2Ftracker.openbittorrent.com%3A80&amp;tr=udp%3A%2F%2Fopen.demonii.com%3A1337&amp;tr=udp%3A%2F%2Ftracker.coppersurfer.tk%3A6969&amp;tr=udp%3A%2F%2Fexodus.desync.com%3A6969","seeders":2,"leechers":1,"uploader":"noriegaRJ","files":15,"time":1432614323,"description":"Title: Plemya aka The Tribe\n\nThis film is in sign language. There are no translation, no subtitles, no voice-over.\n\nWon Critics Week Grand Prize at Cannes Film Festival 2014\n\n\n\nIMDB Link:                                            &lt;a href=&quot;\nhttp://www.imdb.com/title/tt1745787/&quot; rel=&quot;nofollow&quot; target=&quot;_NEW&quot;&gt;\nhttp://www.imdb.com/title/tt1745787/&lt;/a&gt;\n\n\nPlot: A deaf teenager enters a specialized boarding school where, to survive, he becomes part of a wild organization - the tribe. His love for one of the concubines will unwillingly lead him to break all the unwritten rules within the Tribe's hierarchy.\n\n\n\nGeneral\nComplete name                            : The Tribe (Plemya) 2014 DVDrip RU.mp4\nFormat                                   : MPEG-4\nFormat profile                           : Base Media / Version 2\nCodec ID                                 : mp42\nFile size                                : 1.22 GiB\nDuration                                 : 2h 6mn\nOverall bit rate mode                    : Variable\nOverall bit rate                         : 1 381 Kbps\nWriting application                      : HandBrake 0.10.0 2014112200\n\nVideo\nID                                       : 1\nFormat                                   : AVC\nFormat/Info                              : Advanced Video Codec\nFormat profile                           : &lt;a class=&quot;__cf_email__&quot; href=&quot;/cdn-cgi/l/email-protection&quot; data-cfemail=&quot;195478707759552d3729&quot;&gt;[email&amp;#160;protected]&lt;/a&gt;&lt;script data-cfhash='f9e31' type=&quot;text/javascript&quot;&gt;\n/* &lt;![CDATA[ */!function(){try{var t=&quot;currentScript&quot;in document?document.currentScript:function(){for(var t=document.getElementsByTagName(&quot;script&quot;),e=t.length;e--;)if(t[e].getAttribute(&quot;data-cfhash&quot;))return t[e]}();if(t&amp;&amp;t.previousSibling){var e,r,n,i,c=t.previousSibling,a=c.getAttribute(&quot;data-cfemail&quot;);if(a){for(e=&quot;&quot;,r=parseInt(a.substr(0,2),16),n=2;a.length-n;n+=2)i=parseInt(a.substr(n,2),16)^r,e+=String.fromCharCode(i);e=document.createTextNode(e),c.parentNode.replaceChild(e,c)}t.parentNode.removeChild(t);}}catch(u){}}()/* ]]&gt; */&lt;/script&gt;\nFormat settings, CABAC                   : No\nFormat settings, ReFrames                : 4 frames\nCodec ID                                 : avc1\nCodec ID/Info                            : Advanced Video Coding\nDuration                                 : 2h 6mn\nBit rate                                 : 1 280 Kbps\nWidth                                    : 704 pixels\nHeight                                   : 304 pixels\nDisplay aspect ratio                     : 2.35:1\nFrame rate mode                          : Constant\nFrame rate                               : 25.000 fps\nColor space                              : YUV\nChroma subsampling                       : 4:2:0\nBit depth                                : 8 bits\nScan type                                : Progressive\nBits/(Pixel*Frame)                       : 0.239\nStream size                              : 1.13 GiB (93%)\nWriting library                          : x264 core 142 r2479 dd79a61\nColor primaries                          : BT.601 PAL\nTransfer characteristics                 : BT.709\nMatrix coefficients                      : BT.601\n\nAudio\nID                                       : 2\nFormat                                   : AAC\nFormat/Info                              : Advanced Audio Codec\nFormat profile                           : LC\nCodec ID                                 : 40\nDuration                                 : 2h 6mn\nBit rate mode                            : Variable\nBit rate                                 : 96.0 Kbps\nChannel count                            : 2 channels\nChannel positions                        : Front: L R\nSampling rate                            : 32.0 KHz\nCompression mode                         : Lossy\nStream size                              : 87.1 MiB (7%)\nTitle                                    : AUDIO\nLanguage                                 : Russian\n\nMenu\nID                                       : 3\nCodec ID                                 : text\nDuration                                 : 2h 6mn\nLanguage                                 : English\nBit rate mode                            : VBR\n\n\n\n\nThanks to those helping me seed. Leechers remember, the community depends on you. If nobody shares, the freebies go away. Remember, the only reason you can download this free movie is because others are generous enough to keep sharing it with you. If nobody shares, everybody loses, so even if its for an extra hour or two after you get it, remember, others want to see it too, and they can't without you.\n\n\nSEE MY OTHERS UPLOADS:                                                                    &lt;a href=&quot;\nhttp://thepiratebay.se/user/noriegaRJ&quot; rel=&quot;nofollow&quot; target=&quot;_NEW&quot;&gt;\nhttp://thepiratebay.se/user/noriegaRJ&lt;/a&gt;\n\nAND SEE THIS ANOTHERS UPLOADS FROM &quot;HORiZON-ArtSubs&quot;:                    &lt;a href=&quot;\nhttp://thepiratebay.se/user/artsubs&quot; rel=&quot;nofollow&quot; target=&quot;_NEW&quot;&gt;\nhttp://thepiratebay.se/user/artsubs&lt;/a&gt;                    &lt;a href=&quot;\nhttp://thepiratebay.se/user/lletaif&quot; rel=&quot;nofollow&quot; target=&quot;_NEW&quot;&gt;\nhttp://thepiratebay.se/user/lletaif&lt;/a&gt;","torrent":{"xt":"urn:btih:6b2458e5477a932bf435ab8002bb796d47695141","amp;dn":"The+Tribe+%28Plemya%29+2014+DVDrip+RU.mp4","amp;tr":["udp%3A%2F%2Ftracker.openbittorrent.com%3A80","udp%3A%2F%2Fopen.demonii.com%3A1337","udp%3A%2F%2Ftracker.coppersurfer.tk%3A6969","udp%3A%2F%2Fexodus.desync.com%3A6969"],"infoHash":"6b2458e5477a932bf435ab8002bb796d47695141","infoHashBuffer":{"type":"Buffer","data":[107,36,88,229,71,122,147,43,244,53,171,128,2,187,121,109,71,105,81,65]},"announce":[],"urlList":[]}}